STARTFONT 2.1
COMMENT
COMMENT Converted from OpenType font "Q:\font stuff\winfont\WriteCondensed.ttf" by "otf2bdf 3.0".
COMMENT
FONT -FreeType-WriteCondensed-Medium-R-Normal--52-520-72-72-P-134-ISO10646-1
SIZE 52 72 72
FONTBOUNDINGBOX 36 57 -2 -12
STARTPROPERTIES 19
FOUNDRY "FreeType"
FAMILY_NAME "WriteCondensed"
WEIGHT_NAME "Medium"
SLANT "R"
SETWIDTH_NAME "Normal"
ADD_STYLE_NAME ""
PIXEL_SIZE 52
POINT_SIZE 520
RESOLUTION_X 72
RESOLUTION_Y 72
SPACING "P"
AVERAGE_WIDTH 134
CHARSET_REGISTRY "ISO10646"
CHARSET_ENCODING "1"
FONT_ASCENT 45
FONT_DESCENT 11
COPYRIGHT "Copyright © 1986-1995 SWFTE International, Ltd. All rights reserved"
_OTF_FONTFILE "Q:\font stuff\winfont\WriteCondensed.ttf"
_OTF_PSNAME "WriteCondensedRegularSWFTE"
ENDPROPERTIES
CHARS 234
STARTCHAR 0020
ENCODING 32
SWIDTH 173 0
DWIDTH 9 0
BBX 0 0 0 0
BITMAP
ENDCHAR
STARTCHAR 0021
ENCODING 33
SWIDTH 134 0
DWIDTH 7 0
BBX 1 34 3 0
BITMAP
80
80
80
80
80
80
80
80
80
80
80
80
80
80
80
80
80
80
80
80
80
80
80
80
00
00
00
00
00
00
00
00
80
80
ENDCHAR
STARTCHAR 0022
ENCODING 34
SWIDTH 173 0
DWIDTH 9 0
BBX 6 12 2 22
BITMAP
04
84
84
84
84
84
84
84
84
84
84
04
ENDCHAR
STARTCHAR 0023
ENCODING 35
SWIDTH 423 0
DWIDTH 22 0
BBX 20 34 1 0
BITMAP
000080
002080
002080
002100
004100
004100
004100
004200
1FFFF0
0FBE00
008400
008400
010400
010400
010800
010800
020800
020800
021000
041000
FFFF80
FFFF80
042000
082000
082000
084000
084000
104000
104000
108000
208000
208000
208000
210000
ENDCHAR
STARTCHAR 0024
ENCODING 36
SWIDTH 326 0
DWIDTH 17 0
BBX 15 38 1 -3
BITMAP
0100
0100
0100
0100
0100
07C0
0930
1118
2100
4100
4100
4100
8100
8100
8100
8178
8084
8104
4304
7D02
0102
0102
0102
0104
0104
0104
0104
0108
4108
2110
1110
0960
07C0
0100
0100
0100
0100
0100
ENDCHAR
STARTCHAR 0025
ENCODING 37
SWIDTH 442 0
DWIDTH 23 0
BBX 18 34 2 0
BITMAP
1C0800
220800
421000
811000
811000
811000
812000
822000
822000
822000
842000
484000
704000
004000
004000
008000
008000
008000
008000
008000
010000
010780
010C80
010840
021040
021040
022040
022040
042040
042040
042080
041080
041100
080E00
ENDCHAR
STARTCHAR 0026
ENCODING 38
SWIDTH 403 0
DWIDTH 21 0
BBX 18 34 1 0
BITMAP
00F000
011800
020800
040800
040800
040800
041800
041800
047000
06E000
03C000
038000
070000
0D0000
110000
208000
208000
404000
404000
802080
802100
801100
801200
800A00
800C00
800400
800C00
801400
803200
402200
404140
408140
230080
1C0080
ENDCHAR
STARTCHAR 0027
ENCODING 39
SWIDTH 76 0
DWIDTH 4 0
BBX 1 10 1 23
BITMAP
80
80
80
80
80
80
80
80
80
80
ENDCHAR
STARTCHAR 0028
ENCODING 40
SWIDTH 211 0
DWIDTH 11 0
BBX 7 46 3 -12
BITMAP
02
04
08
08
10
10
20
20
20
40
40
40
40
80
80
80
80
80
80
80
80
80
80
80
80
80
80
80
80
80
80
80
80
40
40
40
40
20
20
30
10
18
08
0C
04
02
ENDCHAR
STARTCHAR 0029
ENCODING 41
SWIDTH 192 0
DWIDTH 10 0
BBX 7 46 1 -12
BITMAP
80
40
40
20
20
10
10
08
08
08
04
04
04
04
02
02
02
02
02
02
02
02
02
02
02
02
02
02
02
02
02
04
04
04
04
04
08
08
08
10
10
10
20
20
40
80
ENDCHAR
STARTCHAR 002A
ENCODING 42
SWIDTH 250 0
DWIDTH 13 0
BBX 9 12 2 22
BITMAP
4100
4200
2200
2400
1580
1F00
F800
1400
2400
2200
4200
4100
ENDCHAR
STARTCHAR 002B
ENCODING 43
SWIDTH 346 0
DWIDTH 18 0
BBX 16 22 1 0
BITMAP
0080
0080
0080
0080
0080
0080
0080
0080
0080
0080
FFFF
0080
0080
0080
0080
0080
0080
0080
0080
0080
0080
0080
ENDCHAR
STARTCHAR 002C
ENCODING 44
SWIDTH 134 0
DWIDTH 7 0
BBX 3 9 2 -5
BITMAP
80
C0
40
40
60
40
40
40
80
ENDCHAR
STARTCHAR 002D
ENCODING 45
SWIDTH 211 0
DWIDTH 11 0
BBX 9 2 1 12
BITMAP
0F80
F800
ENDCHAR
STARTCHAR 002E
ENCODING 46
SWIDTH 115 0
DWIDTH 6 0
BBX 2 4 2 0
BITMAP
C0
C0
C0
C0
ENDCHAR
STARTCHAR 002F
ENCODING 47
SWIDTH 211 0
DWIDTH 11 0
BBX 9 34 1 0
BITMAP
0080
0100
0100
0100
0100
0200
0200
0200
0200
0200
0400
0400
0400
0400
0800
0800
0800
0800
0800
1000
1000
1000
1000
2000
2000
2000
2000
2000
4000
4000
4000
4000
8000
8000
ENDCHAR
STARTCHAR 0030
ENCODING 48
SWIDTH 423 0
DWIDTH 22 0
BBX 19 33 1 0
BITMAP
007C00
018300
030180
060080
0C0040
080040
100020
100020
200020
200020
200020
400020
400020
400020
800020
800020
800020
800020
800020
800020
800040
800040
800040
800080
800080
400100
400100
400200
200400
200400
100800
083000
07C000
ENDCHAR
STARTCHAR 0031
ENCODING 49
SWIDTH 211 0
DWIDTH 11 0
BBX 5 33 2 1
BITMAP
08
08
18
28
28
48
88
08
08
08
08
08
08
08
08
08
08
08
08
08
08
08
08
08
08
08
08
08
08
08
08
08
08
ENDCHAR
STARTCHAR 0032
ENCODING 50
SWIDTH 403 0
DWIDTH 21 0
BBX 15 34 2 0
BITMAP
03E0
0C18
1004
2004
4002
4002
4002
8002
8002
8002
8002
8002
0006
0004
000C
0008
0018
0030
0060
00C0
0080
0180
0300
0600
0C00
0800
1000
3000
2002
4002
4002
8002
8002
FFFE
ENDCHAR
STARTCHAR 0033
ENCODING 51
SWIDTH 403 0
DWIDTH 21 0
BBX 18 34 1 0
BITMAP
3FFE00
200200
200200
200200
200400
200800
201000
002000
004000
008000
00FC00
01FF00
010180
020080
0400C0
000040
000040
000040
000040
000040
000040
000040
000040
000040
000040
800040
800080
800080
400100
400200
400200
400400
201800
1FE000
ENDCHAR
STARTCHAR 0034
ENCODING 52
SWIDTH 423 0
DWIDTH 22 0
BBX 19 33 1 1
BITMAP
000C00
001400
001400
002400
002400
004400
004400
008400
010400
010400
020400
020400
040400
040400
080400
080400
100400
200460
200F80
40FC00
4F8400
F80400
000400
000400
000400
000400
000400
000400
000400
000400
000400
000400
000400
ENDCHAR
STARTCHAR 0035
ENCODING 53
SWIDTH 384 0
DWIDTH 20 0
BBX 17 34 1 0
BITMAP
001F00
0FF800
780000
800000
800000
800000
800000
800000
800000
800000
83F000
8E0C00
980200
B00100
A00100
400080
400080
000080
000080
000080
000080
000080
000080
000080
000080
000100
000100
800200
400200
400400
400800
201800
106000
0F8000
ENDCHAR
STARTCHAR 0036
ENCODING 54
SWIDTH 423 0
DWIDTH 22 0
BBX 20 34 1 0
BITMAP
003C00
00C300
018080
020080
020040
040000
080000
080000
100000
100000
200000
200000
200000
400000
403F80
4060C0
418020
430020
820020
840010
880010
980010
900010
600020
600020
400020
400020
200040
200040
100080
100100
080300
060C00
01F000
ENDCHAR
STARTCHAR 0037
ENCODING 55
SWIDTH 326 0
DWIDTH 17 0
BBX 14 34 1 1
BITMAP
001C
03F4
7E04
8004
8008
8008
8008
0010
0010
0010
0020
0020
0040
0040
0040
0080
0080
0080
0100
0100
0200
0200
0200
0400
0400
0400
0800
0800
0800
0800
1000
1000
1000
1000
ENDCHAR
STARTCHAR 0038
ENCODING 56
SWIDTH 423 0
DWIDTH 22 0
BBX 20 34 1 0
BITMAP
007C00
018200
020200
040100
080100
100100
100100
100100
100200
100600
100400
100800
183FC0
0CF060
0F8020
030020
040010
080010
100010
200010
200010
400020
400020
800020
800040
800040
800080
800100
800300
400600
400C00
201000
10E000
0F8000
ENDCHAR
STARTCHAR 0039
ENCODING 57
SWIDTH 403 0
DWIDTH 21 0
BBX 18 34 2 0
BITMAP
03F000
060C00
080200
100200
300100
200100
400080
400080
400080
400080
8000C0
8000C0
400140
400140
400340
600240
200440
100840
0C3040
07C080
000080
000080
000080
000100
000100
000100
800200
800200
800400
400400
400800
201000
186000
0F8000
ENDCHAR
STARTCHAR 003A
ENCODING 58
SWIDTH 134 0
DWIDTH 7 0
BBX 2 22 3 0
BITMAP
C0
C0
C0
C0
00
00
00
00
00
00
00
00
00
00
00
00
00
00
C0
C0
C0
C0
ENDCHAR
STARTCHAR 003B
ENCODING 59
SWIDTH 134 0
DWIDTH 7 0
BBX 3 27 2 -5
BITMAP
60
E0
E0
60
00
00
00
00
00
00
00
00
00
00
00
00
00
00
C0
40
60
20
20
20
40
40
80
ENDCHAR
STARTCHAR 003C
ENCODING 60
SWIDTH 326 0
DWIDTH 17 0
BBX 13 22 2 0
BITMAP
0008
0018
0020
00C0
0180
0200
0C00
1800
2000
C000
8000
C000
6000
3000
0800
0400
0300
0180
0040
0020
0018
0008
ENDCHAR
STARTCHAR 003D
ENCODING 61
SWIDTH 346 0
DWIDTH 18 0
BBX 16 11 1 7
BITMAP
FFFE
0000
0000
0000
0000
0000
0000
0000
0000
0000
7FFF
ENDCHAR
STARTCHAR 003E
ENCODING 62
SWIDTH 346 0
DWIDTH 18 0
BBX 14 22 3 -1
BITMAP
8000
C000
3000
1800
0C00
0200
0180
00C0
0020
0018
000C
000C
0010
0060
00C0
0180
0600
0C00
1800
3000
C000
8000
ENDCHAR
STARTCHAR 003F
ENCODING 63
SWIDTH 307 0
DWIDTH 16 0
BBX 12 34 2 0
BITMAP
0780
1840
2020
4020
4010
8010
8010
0010
0030
0020
0060
00C0
0180
0100
0200
0400
0800
1000
3000
2000
4000
4000
4000
4200
4200
7C00
1000
0000
0000
0000
1800
1800
1800
1800
ENDCHAR
STARTCHAR 0040
ENCODING 64
SWIDTH 519 0
DWIDTH 27 0
BBX 24 34 1 0
BITMAP
0007E0
003C30
006008
008004
010004
020002
0403C2
040422
080821
181021
102021
302021
204021
208041
408041
410041
410041
410081
820081
820181
820181
840281
840681
840482
820882
423082
41E082
400084
20006C
200010
100400
180C00
0C1800
03E000
ENDCHAR
STARTCHAR 0041
ENCODING 65
SWIDTH 423 0
DWIDTH 22 0
BBX 19 34 2 1
BITMAP
004000
006000
006000
00A000
00A000
009000
009000
011000
011000
010800
020800
020800
020800
020400
040400
040400
07FC00
080200
080200
080200
100200
100100
100100
100100
200080
200080
200080
400080
400040
400040
800040
800040
800020
800020
ENDCHAR
STARTCHAR 0042
ENCODING 66
SWIDTH 403 0
DWIDTH 21 0
BBX 16 35 3 0
BITMAP
03E0
9C18
F008
C008
8008
8008
8008
8008
8010
8010
8020
8040
8180
87FC
9C0E
F002
8001
8001
8001
8001
8001
8001
8001
8002
8002
8004
800C
8018
8030
8060
8080
8300
8C00
B800
C000
ENDCHAR
STARTCHAR 0043
ENCODING 67
SWIDTH 365 0
DWIDTH 19 0
BBX 17 34 1 0
BITMAP
00F800
030600
060200
0C0100
080100
100080
300000
200000
200000
400000
400000
400000
800000
800000
800000
800000
800000
800000
800000
800000
800000
800000
800000
800000
800080
800100
800100
400200
400200
400400
200800
201000
102000
0FC000
ENDCHAR
STARTCHAR 0044
ENCODING 68
SWIDTH 403 0
DWIDTH 21 0
BBX 16 35 3 0
BITMAP
07E0
1830
E008
C004
8002
8002
8002
8001
8001
8001
8001
8001
8001
8001
8001
8001
8001
8001
8001
8002
8002
8004
8004
8008
8008
8010
8020
8060
80C0
8180
8300
8600
9800
B000
C000
ENDCHAR
STARTCHAR 0045
ENCODING 69
SWIDTH 365 0
DWIDTH 19 0
BBX 17 34 1 0
BITMAP
200E00
23F800
FE0000
200000
200000
200000
200000
200000
200000
200000
200000
200000
200000
200000
23FC00
3F0000
200000
200000
200000
200000
200000
200000
200000
200000
200000
200000
200000
200000
200000
200000
200000
200380
21FC00
3E0000
ENDCHAR
STARTCHAR 0046
ENCODING 70
SWIDTH 346 0
DWIDTH 18 0
BBX 16 34 1 0
BITMAP
200F
27F8
FC00
2000
2000
2000
2000
2000
2000
2000
2000
2000
2000
2000
23FC
3E00
2000
2000
2000
2000
2000
2000
2000
2000
2000
2000
2000
2000
2000
2000
2000
2000
2000
2000
ENDCHAR
STARTCHAR 0047
ENCODING 71
SWIDTH 480 0
DWIDTH 25 0
BBX 23 34 1 0
BITMAP
001F80
00E040
010030
020010
040008
080000
080000
100000
100000
200000
200000
400000
400000
400000
400000
400000
80001C
8001E2
800F02
800804
800004
800004
800004
800004
800008
400008
400010
400010
200020
200040
100080
080100
040200
03BC00
ENDCHAR
STARTCHAR 0048
ENCODING 72
SWIDTH 346 0
DWIDTH 18 0
BBX 15 34 2 0
BITMAP
8002
8002
8002
8002
8002
8002
8002
8002
8002
8002
8002
8002
8002
8002
8002
FFFE
8002
8002
8002
8002
8002
8002
8002
8002
8002
8002
8002
8002
8002
8002
8002
8002
8002
8002
ENDCHAR
STARTCHAR 0049
ENCODING 73
SWIDTH 134 0
DWIDTH 7 0
BBX 5 34 1 0
BITMAP
38
E0
20
20
20
20
20
20
20
20
20
20
20
20
20
20
20
20
20
20
20
20
20
20
20
20
20
20
20
20
20
20
38
60
ENDCHAR
STARTCHAR 004A
ENCODING 74
SWIDTH 326 0
DWIDTH 17 0
BBX 14 34 1 0
BITMAP
0004
0004
0004
0004
0004
0004
0004
0004
0004
0004
0004
0004
0004
0004
0004
0004
0004
0004
0004
0004
0004
0004
0004
0004
8004
8004
8004
8004
8008
8008
4010
4020
2040
1F80
ENDCHAR
STARTCHAR 004B
ENCODING 75
SWIDTH 384 0
DWIDTH 20 0
BBX 15 34 3 0
BITMAP
8010
8030
8020
8040
8080
8180
8100
8200
8400
8800
8800
9000
A000
C000
C000
E000
A000
9000
9800
8800
8400
8600
8300
8100
8080
80C0
8040
8020
8010
8010
8008
8004
8006
8002
ENDCHAR
STARTCHAR 004C
ENCODING 76
SWIDTH 307 0
DWIDTH 16 0
BBX 11 34 3 -1
BITMAP
8000
8000
8000
8000
8000
8000
8000
8000
8000
8000
8000
8000
8000
8000
8000
8000
8000
8000
8000
8000
8000
8000
8000
8000
8000
8000
8000
8000
8000
8000
8000
8060
8780
F800
ENDCHAR
STARTCHAR 004D
ENCODING 77
SWIDTH 500 0
DWIDTH 26 0
BBX 20 34 3 0
BITMAP
800000
800010
800010
C00010
C00030
C00030
A00030
A00050
A00050
A00050
900050
900090
900090
880090
880110
880110
840110
840210
840210
840210
820210
820410
820410
810410
810810
810810
810810
809010
809010
809010
805010
806010
806010
802000
ENDCHAR
STARTCHAR 004E
ENCODING 78
SWIDTH 365 0
DWIDTH 19 0
BBX 15 34 3 -1
BITMAP
8002
8002
C002
C002
C002
A002
A002
9002
9002
9002
8802
8802
8402
8402
8202
8202
8202
8102
8102
8082
8082
8042
8042
8042
8022
8022
8012
8012
8012
800A
800A
8006
8006
8002
ENDCHAR
STARTCHAR 004F
ENCODING 79
SWIDTH 384 0
DWIDTH 20 0
BBX 18 34 1 0
BITMAP
007800
018600
020100
060100
040080
080080
080080
100080
100040
200040
200040
200040
400040
400040
400040
400040
400040
800040
800040
800040
800040
800080
800080
400080
400080
400100
400100
400200
200200
200400
100800
100800
083000
07C000
ENDCHAR
STARTCHAR 0050
ENCODING 80
SWIDTH 403 0
DWIDTH 21 0
BBX 16 35 3 0
BITMAP
003C
40C2
4301
4601
5801
7001
6001
C002
4002
4004
400C
4018
4030
4060
4080
4300
4C00
7000
4000
4000
4000
4000
4000
4000
4000
4000
4000
4000
4000
4000
4000
4000
4000
4000
4000
ENDCHAR
STARTCHAR 0051
ENCODING 81
SWIDTH 423 0
DWIDTH 22 0
BBX 20 36 1 -2
BITMAP
007800
018600
020200
060100
040080
080080
080080
100080
100040
200040
200040
200040
400040
400040
400040
400040
400040
800040
800040
800040
800040
800080
402080
401080
401980
400900
400500
200200
200600
200500
100900
081080
0C2040
03C040
000020
000010
ENDCHAR
STARTCHAR 0052
ENCODING 82
SWIDTH 384 0
DWIDTH 20 0
BBX 17 34 1 0
BITMAP
20F800
270400
3C0200
300200
E00100
A00100
200200
200200
200200
200400
200800
201000
206000
20C000
3F0000
300000
300000
280000
240000
260000
220000
210000
208000
204000
206000
202000
201000
200800
200C00
200400
200200
200100
200080
200080
ENDCHAR
STARTCHAR 0053
ENCODING 83
SWIDTH 442 0
DWIDTH 23 0
BBX 18 34 3 0
BITMAP
01F800
070C00
0C0200
100300
200000
200000
400000
400000
800000
800000
800000
800000
800000
800000
407F00
41C180
3F0080
000040
000040
000040
000040
000040
000040
000040
000080
000080
000080
800100
800100
800200
400400
400800
301000
0FE000
ENDCHAR
STARTCHAR 0054
ENCODING 84
SWIDTH 346 0
DWIDTH 18 0
BBX 16 33 1 0
BITMAP
0003
003C
01E0
1E00
F200
0200
0200
0200
0200
0200
0200
0200
0200
0200
0200
0200
0200
0200
0200
0200
0200
0200
0200
0200
0200
0200
0200
0200
0200
0200
0200
0200
0200
ENDCHAR
STARTCHAR 0055
ENCODING 85
SWIDTH 384 0
DWIDTH 20 0
BBX 15 34 3 0
BITMAP
8002
8002
8002
8002
8002
8002
8002
8002
8002
8002
8002
8002
8002
8002
8002
8002
8002
8002
8002
8002
8002
8002
8002
8002
8004
8004
8004
8008
8008
8010
4010
4020
20C0
1F00
ENDCHAR
STARTCHAR 0056
ENCODING 86
SWIDTH 346 0
DWIDTH 18 0
BBX 17 34 0 0
BITMAP
800080
800100
400100
400200
400200
400200
400400
200400
200800
200800
200800
201000
101000
102000
102000
102000
104000
104000
084000
088000
088000
088000
088000
090000
090000
050000
050000
060000
060000
060000
020000
020000
020000
020000
ENDCHAR
STARTCHAR 0057
ENCODING 87
SWIDTH 480 0
DWIDTH 25 0
BBX 22 33 1 0
BITMAP
802004
403004
403004
403004
403004
403004
405008
404808
404808
204808
204808
208808
208810
208410
208410
210410
110410
110420
110420
110220
120220
120220
120220
0A0240
0A0140
0C0140
0C0140
0C0140
0C0180
0C0080
040080
040080
040080
ENDCHAR
STARTCHAR 0058
ENCODING 88
SWIDTH 307 0
DWIDTH 16 0
BBX 14 34 1 0
BITMAP
4004
2004
2008
2008
1008
1010
1010
0820
0820
0840
0440
0440
0480
0280
0300
0100
0300
0300
0680
0480
0480
0840
0840
1020
1020
1020
2010
2010
4010
4008
4008
8008
8008
8004
ENDCHAR
STARTCHAR 0059
ENCODING 89
SWIDTH 442 0
DWIDTH 23 0
BBX 20 34 1 0
BITMAP
800000
C00010
400020
200060
100040
100080
080100
040100
060200
020400
010400
008800
009000
006000
002000
002000
002000
002000
002000
002000
002000
002000
002000
002000
002000
002000
002000
002000
002000
002000
002000
002000
002000
002000
ENDCHAR
STARTCHAR 005A
ENCODING 90
SWIDTH 346 0
DWIDTH 18 0
BBX 15 34 2 0
BITMAP
1FFE
7C02
4004
4004
4008
0008
0010
0010
0020
0020
0060
0040
0040
0080
0080
0100
0100
0200
0200
0600
0400
0400
0800
0800
1000
1000
2000
2000
6000
4000
4000
8004
8004
FFF8
ENDCHAR
STARTCHAR 005B
ENCODING 91
SWIDTH 211 0
DWIDTH 11 0
BBX 9 45 1 -12
BITMAP
0380
1E00
7000
8000
8000
8000
8000
8000
8000
8000
8000
8000
8000
8000
8000
8000
8000
8000
8000
8000
8000
8000
8000
8000
8000
8000
8000
8000
8000
8000
8000
8000
8000
8000
8000
8000
8000
8000
8000
8000
8000
8000
8180
8E00
7000
ENDCHAR
STARTCHAR 005C
ENCODING 92
SWIDTH 211 0
DWIDTH 11 0
BBX 9 34 1 0
BITMAP
8000
4000
4000
4000
4000
2000
2000
2000
2000
2000
1000
1000
1000
1000
1000
0800
0800
0800
0800
0400
0400
0400
0400
0400
0200
0200
0200
0200
0200
0100
0100
0100
0100
0080
ENDCHAR
STARTCHAR 005D
ENCODING 93
SWIDTH 211 0
DWIDTH 11 0
BBX 9 46 1 -11
BITMAP
0180
1F80
F080
0080
0080
0080
0080
0080
0080
0080
0080
0080
0080
0080
0080
0080
0080
0080
0080
0080
0080
0080
0080
0080
0080
0080
0080
0080
0080
0080
0080
0080
0080
0080
0080
0080
0080
0080
0080
0080
0080
0080
0080
0700
3800
C000
ENDCHAR
STARTCHAR 005E
ENCODING 94
SWIDTH 326 0
DWIDTH 17 0
BBX 12 12 3 23
BITMAP
0600
0600
0D00
0900
1080
1080
2040
2040
4020
4020
8010
8010
ENDCHAR
STARTCHAR 005F
ENCODING 95
SWIDTH 346 0
DWIDTH 18 0
BBX 18 1 0 -5
BITMAP
FFFFC0
ENDCHAR
STARTCHAR 0060
ENCODING 96
SWIDTH 153 0
DWIDTH 8 0
BBX 6 8 1 26
BITMAP
80
40
20
30
10
08
0C
04
ENDCHAR
STARTCHAR 0061
ENCODING 97
SWIDTH 307 0
DWIDTH 16 0
BBX 13 24 1 0
BITMAP
01E0
03F0
0610
0408
0808
1008
1008
0008
0008
0008
0008
0008
0078
03F8
0E08
1808
3008
6008
4008
8018
8028
8048
8188
7E08
ENDCHAR
STARTCHAR 0062
ENCODING 98
SWIDTH 288 0
DWIDTH 15 0
BBX 13 33 1 -1
BITMAP
8000
8000
8000
8000
8000
8000
8000
8000
8000
80E0
83F0
8610
8C10
8810
9010
A008
A010
C010
C010
8010
8010
8020
8020
8040
8040
8080
8100
8100
8200
8400
8800
B000
C000
ENDCHAR
STARTCHAR 0063
ENCODING 99
SWIDTH 307 0
DWIDTH 16 0
BBX 13 24 1 0
BITMAP
03C0
0620
0C10
0810
1010
1000
2000
2000
4000
4000
4000
4000
4000
8000
8000
8000
8000
8008
4010
4010
4020
2040
3180
1E00
ENDCHAR
STARTCHAR 0064
ENCODING 100
SWIDTH 326 0
DWIDTH 17 0
BBX 14 34 1 0
BITMAP
0004
0004
0004
0004
0004
0004
0004
0004
0004
0004
0004
0004
0004
00F4
019C
0204
0404
0804
1804
1004
3004
2004
6004
400C
400C
8014
8014
8024
8024
8044
8084
8084
4304
3C04
ENDCHAR
STARTCHAR 0065
ENCODING 101
SWIDTH 326 0
DWIDTH 17 0
BBX 14 24 1 0
BITMAP
03C0
0FE0
1830
1818
3008
2004
2038
40C0
4700
7800
C000
8000
8000
8000
8000
8004
8004
8008
8008
8010
4010
4020
20C0
1F00
ENDCHAR
STARTCHAR 0066
ENCODING 102
SWIDTH 269 0
DWIDTH 14 0
BBX 11 33 1 0
BITMAP
03C0
0420
0420
0400
0800
0800
0800
0800
0800
0800
0820
09C0
0700
1800
E800
8800
0800
0800
0800
0800
0800
0800
0800
0800
0800
0800
0800
0800
0800
0800
0800
0800
0800
ENDCHAR
STARTCHAR 0067
ENCODING 103
SWIDTH 307 0
DWIDTH 16 0
BBX 12 32 2 -9
BITMAP
00E0
0190
0610
0C10
0810
1010
2030
2030
4030
4050
4050
8050
8050
8090
8090
8110
8110
8210
8210
8410
8410
9810
7010
0010
0010
0010
0010
0010
0020
2060
10C0
0F80
ENDCHAR
STARTCHAR 0068
ENCODING 104
SWIDTH 307 0
DWIDTH 16 0
BBX 11 34 3 0
BITMAP
8000
8000
8000
8000
8000
8000
8000
8000
8000
8000
8380
8440
8840
9040
A020
A020
C020
C020
8020
8020
8020
8020
8020
8020
8020
8020
8020
8020
8020
8020
8020
8020
8020
8020
ENDCHAR
STARTCHAR 0069
ENCODING 105
SWIDTH 134 0
DWIDTH 7 0
BBX 1 32 3 0
BITMAP
80
80
80
00
00
00
00
00
80
80
80
80
80
80
80
80
80
80
80
80
80
80
80
80
80
80
80
80
80
80
80
80
ENDCHAR
STARTCHAR 006A
ENCODING 106
SWIDTH 230 0
DWIDTH 12 0
BBX 9 39 1 -7
BITMAP
0080
0080
0000
0000
0000
0000
0000
0000
0100
0100
0100
0100
0100
0100
0100
0100
0100
0100
0100
0100
0100
0100
0100
0100
0100
0100
0100
0100
0100
0100
0100
0100
0100
0100
8100
4100
4100
2200
1C00
ENDCHAR
STARTCHAR 006B
ENCODING 107
SWIDTH 269 0
DWIDTH 14 0
BBX 11 33 1 1
BITMAP
8000
8000
8000
8000
8000
8000
8000
8000
8000
8040
80C0
8180
8100
8200
8400
8800
9800
9000
A000
4000
4000
A000
9000
9800
8800
8400
8200
8300
8100
8080
8040
8020
0020
ENDCHAR
STARTCHAR 006C
ENCODING 108
SWIDTH 115 0
DWIDTH 6 0
BBX 1 34 3 0
BITMAP
80
80
80
80
80
80
80
80
80
80
80
80
80
80
80
80
80
80
80
80
80
80
80
80
80
80
80
80
80
80
80
80
80
80
ENDCHAR
STARTCHAR 006D
ENCODING 109
SWIDTH 461 0
DWIDTH 24 0
BBX 21 23 1 1
BITMAP
80E030
8120C8
822088
842108
882208
902608
902408
A02808
A02808
401008
402008
802008
802008
802008
802008
802008
802008
802008
802008
802008
802008
802008
002008
ENDCHAR
STARTCHAR 006E
ENCODING 110
SWIDTH 269 0
DWIDTH 14 0
BBX 10 24 2 0
BITMAP
8180
83C0
8640
8C40
8840
9040
B040
A040
C040
C040
8040
8040
8040
8040
8040
8040
8040
8040
8040
8040
8040
8040
8040
8000
ENDCHAR
STARTCHAR 006F
ENCODING 111
SWIDTH 326 0
DWIDTH 17 0
BBX 14 24 1 0
BITMAP
01E0
07F0
0618
0C0C
1804
1004
3004
2004
6004
4004
4004
4004
8004
8004
8008
8008
8008
8010
8010
8020
4020
2040
2080
1F00
ENDCHAR
STARTCHAR 0070
ENCODING 112
SWIDTH 288 0
DWIDTH 15 0
BBX 12 36 1 -12
BITMAP
03C0
0620
8C20
9810
9010
A010
A010
4010
4010
4010
8010
8010
8010
8010
8020
8020
8020
8040
8040
8040
8080
8080
4100
A200
9C00
8000
8000
8000
8000
8000
8000
8000
8000
8000
8000
8000
ENDCHAR
STARTCHAR 0071
ENCODING 113
SWIDTH 403 0
DWIDTH 21 0
BBX 18 36 1 -12
BITMAP
00FC00
030200
040200
080200
100600
100600
200600
200600
400A00
400A00
400A00
801A00
801200
801200
802200
802200
806200
804200
80C200
808200
418200
410200
220200
1C0200
000200
000200
000200
000200
000200
000200
000240
000280
000380
000300
000200
000200
ENDCHAR
STARTCHAR 0072
ENCODING 114
SWIDTH 250 0
DWIDTH 13 0
BBX 10 24 3 0
BITMAP
8180
8280
8480
8840
9040
9000
A000
C000
C000
8000
8000
8000
8000
8000
8000
8000
8000
8000
8000
8000
8000
8000
8000
8000
ENDCHAR
STARTCHAR 0073
ENCODING 115
SWIDTH 326 0
DWIDTH 17 0
BBX 14 24 1 0
BITMAP
03F0
0C10
1000
2000
4000
4000
8000
8000
80F0
83C8
4604
7804
0004
0004
0004
0004
0004
000C
0008
0010
4030
4040
2180
1E00
ENDCHAR
STARTCHAR 0074
ENCODING 116
SWIDTH 307 0
DWIDTH 16 0
BBX 14 28 1 -1
BITMAP
0400
0400
0400
0400
0418
04F0
0780
1C00
F400
8400
0400
0400
0400
0400
0400
0400
0400
0400
0400
0400
0404
040C
0418
0410
0420
04C0
0500
0600
ENDCHAR
STARTCHAR 0075
ENCODING 117
SWIDTH 269 0
DWIDTH 14 0
BBX 11 24 2 0
BITMAP
8020
8020
8020
8020
8020
8020
8020
8020
8020
8020
8020
8020
8020
8020
8020
8020
8020
8060
8060
80A0
81A0
8320
4620
7820
ENDCHAR
STARTCHAR 0076
ENCODING 118
SWIDTH 288 0
DWIDTH 15 0
BBX 13 23 1 -1
BITMAP
8008
8008
8010
4010
4020
4020
4040
4040
4080
4080
4100
4100
2100
2200
2200
2400
2400
2400
2800
2800
1800
1800
1000
ENDCHAR
STARTCHAR 0077
ENCODING 119
SWIDTH 403 0
DWIDTH 21 0
BBX 18 23 1 2
BITMAP
808040
808040
418040
418040
418080
418080
418080
424080
424100
424100
424100
224100
242200
242200
242200
242400
241400
281400
181400
181800
180800
100800
100800
ENDCHAR
STARTCHAR 0078
ENCODING 120
SWIDTH 307 0
DWIDTH 16 0
BBX 13 24 1 0
BITMAP
0008
2010
2010
2020
1020
1040
0840
0480
0480
0300
0300
0300
0280
0480
0840
0840
1020
1020
2010
2010
4010
4010
8008
8008
ENDCHAR
STARTCHAR 0079
ENCODING 121
SWIDTH 346 0
DWIDTH 18 0
BBX 15 32 1 -8
BITMAP
4002
4002
2002
2004
2004
1004
1008
1008
0808
0808
0810
0810
0410
0420
0420
0220
0220
0240
0140
0140
0180
0080
0080
0100
0100
0100
8100
8200
8200
8600
6C00
3800
ENDCHAR
STARTCHAR 007A
ENCODING 122
SWIDTH 307 0
DWIDTH 16 0
BBX 13 24 1 -1
BITMAP
0038
3FD0
2010
0030
0020
0060
0040
00C0
0080
0180
0100
0300
0200
0600
0400
0C00
0800
1800
1000
3000
2000
6000
4030
FFC0
ENDCHAR
STARTCHAR 007B
ENCODING 123
SWIDTH 269 0
DWIDTH 14 0
BBX 11 46 1 -12
BITMAP
00E0
0380
0200
0400
0400
0400
0400
0400
0400
0400
0400
0400
0400
0400
0400
0400
0400
0400
0400
0400
0800
0800
3000
F800
0800
0400
0400
0400
0400
0400
0400
0400
0400
0400
0400
0400
0400
0400
0400
0400
0400
0200
0200
0100
0180
0060
ENDCHAR
STARTCHAR 007C
ENCODING 124
SWIDTH 96 0
DWIDTH 5 0
BBX 1 34 2 0
BITMAP
80
80
80
80
80
80
80
80
80
80
80
80
80
80
80
80
80
80
80
80
80
80
80
80
80
80
80
80
80
80
80
80
80
80
ENDCHAR
STARTCHAR 007D
ENCODING 125
SWIDTH 269 0
DWIDTH 14 0
BBX 11 46 1 -12
BITMAP
E000
1800
0C00
0400
0400
0400
0400
0400
0200
0200
0200
0200
0200
0200
0200
0200
0200
0200
0200
0200
0200
0200
01E0
01E0
0200
0200
0200
0200
0200
0200
0200
0200
0200
0200
0200
0400
0400
0400
0400
0400
0400
0400
0800
0800
3000
E000
ENDCHAR
STARTCHAR 007E
ENCODING 126
SWIDTH 346 0
DWIDTH 18 0
BBX 16 8 1 9
BITMAP
1E01
3301
2102
4102
4082
4084
8084
0078
ENDCHAR
STARTCHAR 00A0
ENCODING 160
SWIDTH 269 0
DWIDTH 14 0
BBX 0 0 0 0
BITMAP
ENDCHAR
STARTCHAR 00A1
ENCODING 161
SWIDTH 134 0
DWIDTH 7 0
BBX 1 34 3 -10
BITMAP
80
80
80
00
00
00
00
00
00
00
80
80
80
80
80
80
80
80
80
80
80
80
80
80
80
80
80
80
80
80
80
80
80
80
ENDCHAR
STARTCHAR 00A2
ENCODING 162
SWIDTH 307 0
DWIDTH 16 0
BBX 12 34 2 0
BITMAP
0200
0200
0200
0200
0380
06C0
0A20
1A20
1210
2210
2200
4200
4200
4200
8200
8200
8200
8200
8200
8200
8210
8210
8210
8220
4240
4280
2300
1E00
0200
0200
0200
0200
0200
0200
ENDCHAR
STARTCHAR 00A3
ENCODING 163
SWIDTH 403 0
DWIDTH 21 0
BBX 18 34 1 -1
BITMAP
003800
006600
004200
008100
008080
010000
010000
010000
010000
010000
020000
020000
020000
020000
020700
03FC00
3F0000
220000
020000
020000
020000
020000
020000
020000
040000
040000
040040
040040
080040
080040
170080
1DC080
203F00
C00C00
ENDCHAR
STARTCHAR 00A4
ENCODING 164
SWIDTH 346 0
DWIDTH 18 0
BBX 15 23 1 0
BITMAP
8002
43C2
2C64
1818
3008
200C
4004
4004
4004
4002
4002
4002
4002
4002
4004
4004
4004
4004
2008
200C
301C
4832
47C2
ENDCHAR
STARTCHAR 00A5
ENCODING 165
SWIDTH 461 0
DWIDTH 24 0
BBX 21 34 1 0
BITMAP
800008
400010
400010
200020
200020
100040
080080
080080
040100
060300
020200
010400
010400
008800
005800
005000
002000
002000
002000
002000
07FF80
002000
002000
002000
002000
002000
0FFF80
07E000
002000
002000
002000
002000
002000
002000
ENDCHAR
STARTCHAR 00A6
ENCODING 166
SWIDTH 96 0
DWIDTH 5 0
BBX 1 39 2 0
BITMAP
80
80
80
80
80
80
80
80
80
80
80
80
80
80
80
80
00
00
00
00
00
00
00
00
80
80
80
80
80
80
80
80
80
80
80
80
80
80
80
ENDCHAR
STARTCHAR 00A7
ENCODING 167
SWIDTH 403 0
DWIDTH 21 0
BBX 16 33 2 0
BITMAP
03F0
073C
1806
3000
2000
6000
4000
4000
C000
C000
4000
6030
3FFC
4002
4001
4001
4001
4001
4001
4001
207E
3F82
0401
0001
0001
0001
0001
0001
8002
8002
4004
2008
1FF0
ENDCHAR
STARTCHAR 00A8
ENCODING 168
SWIDTH 211 0
DWIDTH 11 0
BBX 7 2 2 29
BITMAP
82
82
ENDCHAR
STARTCHAR 00A9
ENCODING 169
SWIDTH 480 0
DWIDTH 25 0
BBX 22 34 1 0
BITMAP
007E00
01FF80
0300C0
060060
0C0030
080010
100008
103C08
204208
208204
410104
410004
420004
420004
840004
840004
840004
840004
840004
840004
840004
840004
840004
840208
420408
420408
410810
20F010
200020
100040
1000C0
0C0180
071E00
01F800
ENDCHAR
STARTCHAR 00AA
ENCODING 170
SWIDTH 288 0
DWIDTH 15 0
BBX 12 18 1 16
BITMAP
03C0
0C20
1020
2020
2020
0020
0010
0190
0E70
3020
6020
4020
8020
8060
8060
81A0
4320
3C20
ENDCHAR
STARTCHAR 00AB
ENCODING 171
SWIDTH 384 0
DWIDTH 20 0
BBX 14 22 2 2
BITMAP
0084
0104
0208
0610
0430
0820
1040
3080
2180
4100
8200
8200
4100
2080
3080
1040
0820
0410
0610
0208
0104
0080
ENDCHAR
STARTCHAR 00AC
ENCODING 172
SWIDTH 346 0
DWIDTH 18 0
BBX 15 9 1 8
BITMAP
FFFE
0002
0002
0002
0002
0002
0002
0002
0002
ENDCHAR
STARTCHAR 00AD
ENCODING 173
SWIDTH 211 0
DWIDTH 11 0
BBX 9 1 1 13
BITMAP
FF80
ENDCHAR
STARTCHAR 00AE
ENCODING 174
SWIDTH 519 0
DWIDTH 27 0
BBX 22 33 3 1
BITMAP
007E00
018380
0200C0
040060
080020
100010
100010
200008
211C08
41E208
410204
430204
810204
810404
810404
811804
81E004
810004
818004
814004
812004
813008
811008
810808
810410
410610
410220
410120
200040
100080
080100
040600
03F800
ENDCHAR
STARTCHAR 00AF
ENCODING 175
SWIDTH 250 0
DWIDTH 13 0
BBX 7 1 1 20
BITMAP
FE
ENDCHAR
STARTCHAR 00B0
ENCODING 176
SWIDTH 173 0
DWIDTH 9 0
BBX 7 10 1 24
BITMAP
38
6C
42
82
82
82
42
46
7C
38
ENDCHAR
STARTCHAR 00B1
ENCODING 177
SWIDTH 346 0
DWIDTH 18 0
BBX 16 24 1 1
BITMAP
0080
0080
0080
0080
0080
0080
0080
0080
0080
0080
FFFF
0080
0080
0080
0080
0080
0080
0080
0080
0080
0080
0080
0000
FFFF
ENDCHAR
STARTCHAR 00B2
ENCODING 178
SWIDTH 269 0
DWIDTH 14 0
BBX 9 21 2 13
BITMAP
1E00
2100
4080
8080
8080
8080
8080
0080
0100
0100
0200
0400
0400
0800
1000
2000
4000
4080
8080
8080
FF80
ENDCHAR
STARTCHAR 00B3
ENCODING 179
SWIDTH 269 0
DWIDTH 14 0
BBX 12 21 1 13
BITMAP
3FC0
4040
4080
0100
0200
0200
0780
0C40
1020
0020
0020
0010
0010
0020
0020
8020
8020
4040
4080
2380
1E00
ENDCHAR
STARTCHAR 00B4
ENCODING 180
SWIDTH 115 0
DWIDTH 6 0
BBX 4 6 1 18
BITMAP
10
20
20
40
80
80
ENDCHAR
STARTCHAR 00B5
ENCODING 181
SWIDTH 269 0
DWIDTH 14 0
BBX 11 33 2 -9
BITMAP
8020
8020
8020
8020
8020
8020
8020
8020
8020
8020
8020
8020
8020
8020
8020
8020
8020
8060
8060
80A0
81A0
8320
C620
F820
8000
8000
8000
8000
8000
8000
8000
8000
8000
ENDCHAR
STARTCHAR 00B6
ENCODING 182
SWIDTH 365 0
DWIDTH 19 0
BBX 15 34 1 0
BITMAP
000E
003E
01E2
03A2
0E22
1822
3022
6022
4022
4022
8022
8022
4022
4022
3022
1FE2
0022
0022
0022
0022
0022
0022
0022
0022
0022
0022
0022
0022
0022
0022
0022
0022
0022
0020
ENDCHAR
STARTCHAR 00B7
ENCODING 183
SWIDTH 96 0
DWIDTH 5 0
BBX 2 4 2 11
BITMAP
C0
C0
C0
C0
ENDCHAR
STARTCHAR 00B8
ENCODING 184
SWIDTH 365 0
DWIDTH 19 0
BBX 1 5 8 -5
BITMAP
80
80
80
80
80
ENDCHAR
STARTCHAR 00B9
ENCODING 185
SWIDTH 211 0
DWIDTH 11 0
BBX 3 21 3 13
BITMAP
20
60
60
A0
20
20
20
20
20
20
20
20
20
20
20
20
20
20
20
20
20
ENDCHAR
STARTCHAR 00BA
ENCODING 186
SWIDTH 269 0
DWIDTH 14 0
BBX 12 18 1 16
BITMAP
0F00
1080
2040
2020
4020
4020
8010
8010
8010
8020
8020
8020
8040
8040
8080
4180
2300
1C00
ENDCHAR
STARTCHAR 00BB
ENCODING 187
SWIDTH 326 0
DWIDTH 17 0
BBX 14 22 1 2
BITMAP
8200
C200
4100
2080
1040
0860
0820
0410
0208
010C
0184
0104
0308
0218
0410
0820
1840
10C0
2080
4100
C200
8200
ENDCHAR
STARTCHAR 00BC
ENCODING 188
SWIDTH 442 0
DWIDTH 23 0
BBX 18 34 3 0
BITMAP
000800
200800
601000
A01000
A01000
202000
202000
204000
204000
204000
208000
208000
208000
210000
210400
210C00
220C00
221400
221400
242400
042400
084400
088400
088400
1105C0
113E00
13C400
200400
200400
200400
400400
400400
400400
800000
ENDCHAR
STARTCHAR 00BD
ENCODING 189
SWIDTH 500 0
DWIDTH 26 0
BBX 17 34 4 1
BITMAP
200800
601000
601000
A01000
202000
202000
202000
204000
204000
204000
208000
208000
210000
210E00
213100
224080
224080
228080
248080
248080
048080
080080
080100
080200
100200
100400
200800
201000
202000
402000
404080
408080
808080
80FF80
ENDCHAR
STARTCHAR 00BE
ENCODING 190
SWIDTH 519 0
DWIDTH 27 0
BBX 24 34 1 -1
BITMAP
7F8020
408040
408040
410040
020080
040080
0F8080
084100
104100
002100
002200
002200
002200
002400
002410
802830
804830
804850
409050
631090
1C1090
002110
002210
002210
004417
0044F8
004F10
008010
008010
008010
010010
010010
020010
020000
ENDCHAR
STARTCHAR 00BF
ENCODING 191
SWIDTH 307 0
DWIDTH 16 0
BBX 12 34 2 -10
BITMAP
1800
1800
1800
1800
0000
0000
0000
3C00
4200
4200
4000
4000
4000
2000
2000
1000
0800
0C00
0600
0300
0100
0080
0040
0020
0020
0010
8010
8010
4010
4010
2020
3020
18C0
0780
ENDCHAR
STARTCHAR 00C0
ENCODING 192
SWIDTH 423 0
DWIDTH 22 0
BBX 19 42 2 0
BITMAP
020000
010000
010000
008000
004000
000000
000000
000000
004000
006000
006000
00A000
00A000
009000
009000
011000
011000
010800
020800
020800
020800
020400
040400
040400
07FC00
080200
080200
080200
100200
100100
100100
100100
200080
200080
200080
400080
400040
400040
800040
800040
800020
800020
ENDCHAR
STARTCHAR 00C1
ENCODING 193
SWIDTH 423 0
DWIDTH 22 0
BBX 19 42 2 0
BITMAP
000400
000800
000800
001000
002000
002000
000000
000000
004000
006000
006000
00A000
00A000
009000
009000
011000
011000
010800
020800
020800
020800
020400
040400
040400
07FC00
080200
080200
080200
100200
100100
100100
100100
200080
200080
200080
400080
400040
400040
800040
800040
800020
800020
ENDCHAR
STARTCHAR 00C2
ENCODING 194
SWIDTH 423 0
DWIDTH 22 0
BBX 19 42 2 1
BITMAP
004000
00A000
009000
011000
010800
020000
000000
000000
004000
006000
006000
00A000
00A000
009000
009000
011000
011000
010800
020800
020800
020800
020400
040400
040400
07FC00
080200
080200
080200
100200
100100
100100
100100
200080
200080
200080
400080
400040
400040
800040
800040
800020
800020
ENDCHAR
STARTCHAR 00C3
ENCODING 195
SWIDTH 423 0
DWIDTH 22 0
BBX 19 42 2 0
BITMAP
018000
024200
022200
042200
041400
000800
000000
000000
004000
006000
006000
00A000
00A000
009000
009000
011000
011000
010800
020800
020800
020800
020400
040400
040400
07FC00
080200
080200
080200
100200
100100
100100
100100
200080
200080
200080
400080
400040
400040
800040
800040
800020
800020
ENDCHAR
STARTCHAR 00C4
ENCODING 196
SWIDTH 423 0
DWIDTH 22 0
BBX 19 41 2 0
BITMAP
030C00
030E00
030E00
030C00
000000
000000
000000
004000
006000
006000
00A000
00A000
009000
009000
011000
011000
010800
020800
020800
020800
020400
040400
040400
07FC00
080200
080200
080200
100200
100100
100100
100100
200080
200080
200080
400080
400040
400040
800040
800040
800020
800020
ENDCHAR
STARTCHAR 00C5
ENCODING 197
SWIDTH 423 0
DWIDTH 22 0
BBX 19 45 2 0
BITMAP
006000
009000
011000
010800
010800
010800
011000
009000
006000
000000
000000
004000
006000
006000
00A000
00A000
009000
009000
011000
011000
010800
020800
020800
020800
020400
040400
040400
07FC00
080200
080200
080200
100200
100100
100100
100100
200080
200080
200080
400080
400040
400040
800040
800040
800020
800020
ENDCHAR
STARTCHAR 00C6
ENCODING 198
SWIDTH 538 0
DWIDTH 28 0
BBX 26 34 1 -1
BITMAP
000401C0
00043F00
000FC000
000C0000
000C0000
00140000
00140000
00240000
00240000
00240000
00440000
00440000
00C40000
00840000
00840300
01043E00
0107E000
013E0000
03E40000
02040000
04040000
04040000
04040000
08040000
08040000
18040000
10040000
10040000
20040000
20040000
20040080
40040700
40047800
80078000
ENDCHAR
STARTCHAR 00C7
ENCODING 199
SWIDTH 365 0
DWIDTH 19 0
BBX 17 38 1 -5
BITMAP
00F800
030600
060200
0C0100
080100
100080
100000
200000
200000
400000
400000
400000
800000
800000
800000
800000
800000
800000
800000
800000
800000
800000
800000
800000
800080
800100
800100
800200
400200
400400
400400
200800
101000
186000
078000
020000
020000
020000
ENDCHAR
STARTCHAR 00C8
ENCODING 200
SWIDTH 365 0
DWIDTH 19 0
BBX 17 42 1 0
BITMAP
040000
040000
020000
010000
008000
008000
000000
000000
200E00
23F800
FE0000
200000
200000
200000
200000
200000
200000
200000
200000
200000
200000
200000
23FC00
3F0000
200000
200000
200000
200000
200000
200000
200000
200000
200000
200000
200000
200000
200000
200000
200000
200380
21FC00
3E0000
ENDCHAR
STARTCHAR 00C9
ENCODING 201
SWIDTH 365 0
DWIDTH 19 0
BBX 17 41 1 1
BITMAP
002000
004000
008000
008000
000000
000000
000000
200E00
23F800
FE0000
200000
200000
200000
200000
200000
200000
200000
200000
200000
200000
200000
23FC00
3F0000
200000
200000
200000
200000
200000
200000
200000
200000
200000
200000
200000
200000
200000
200000
200000
200380
21FC00
3E0000
ENDCHAR
STARTCHAR 00CA
ENCODING 202
SWIDTH 365 0
DWIDTH 19 0
BBX 17 42 1 1
BITMAP
008000
014000
024000
022000
041000
000000
000000
000000
200E00
23F800
FE0000
200000
200000
200000
200000
200000
200000
200000
200000
200000
200000
200000
23FC00
3F0000
200000
200000
200000
200000
200000
200000
200000
200000
200000
200000
200000
200000
200000
200000
200000
200380
21FC00
3E0000
ENDCHAR
STARTCHAR 00CB
ENCODING 203
SWIDTH 365 0
DWIDTH 19 0
BBX 17 40 1 0
BITMAP
0C1800
0E3800
0E3800
0C1800
000000
000000
200E00
23F800
FE0000
200000
200000
200000
200000
200000
200000
200000
200000
200000
200000
200000
23FC00
3F0000
200000
200000
200000
200000
200000
200000
200000
200000
200000
200000
200000
200000
200000
200000
200000
200380
21FC00
3E0000
ENDCHAR
STARTCHAR 00CC
ENCODING 204
SWIDTH 134 0
DWIDTH 7 0
BBX 6 42 0 -1
BITMAP
80
40
40
20
10
10
00
00
1C
70
10
10
10
10
10
10
10
10
10
10
10
10
10
10
10
10
10
10
10
10
10
10
10
10
10
10
10
10
10
10
1C
30
ENDCHAR
STARTCHAR 00CD
ENCODING 205
SWIDTH 134 0
DWIDTH 7 0
BBX 6 42 1 -1
BITMAP
04
08
08
10
20
20
00
00
38
E0
20
20
20
20
20
20
20
20
20
20
20
20
20
20
20
20
20
20
20
20
20
20
20
20
20
20
20
20
20
20
38
60
ENDCHAR
STARTCHAR 00CE
ENCODING 206
SWIDTH 134 0
DWIDTH 7 0
BBX 7 42 0 0
BITMAP
10
28
48
44
82
00
00
00
1C
70
10
10
10
10
10
10
10
10
10
10
10
10
10
10
10
10
10
10
10
10
10
10
10
10
10
10
10
10
10
10
1C
30
ENDCHAR
STARTCHAR 00CF
ENCODING 207
SWIDTH 134 0
DWIDTH 7 0
BBX 9 40 -1 -1
BITMAP
C180
E380
E380
C180
0000
0000
0E00
3800
0800
0800
0800
0800
0800
0800
0800
0800
0800
0800
0800
0800
0800
0800
0800
0800
0800
0800
0800
0800
0800
0800
0800
0800
0800
0800
0800
0800
0800
0800
0E00
1800
ENDCHAR
STARTCHAR 00D0
ENCODING 208
SWIDTH 423 0
DWIDTH 22 0
BBX 19 35 1 0
BITMAP
00FC00
030600
1C0100
180080
100040
100040
100040
100020
100020
100020
100020
100020
100020
100020
100020
100020
100020
FFE020
100020
100040
100040
100080
100080
100100
100100
100200
100400
100C00
101800
103000
106000
10C000
130000
160000
180000
ENDCHAR
STARTCHAR 00D1
ENCODING 209
SWIDTH 365 0
DWIDTH 19 0
BBX 15 42 3 -1
BITMAP
0C00
1210
1210
2110
2120
20C0
0000
0000
8002
8002
C002
C002
C002
A002
A002
9002
9002
9002
8802
8802
8402
8402
8202
8202
8202
8102
8102
8082
8082
8042
8042
8042
8022
8022
8012
8012
8012
800A
800A
8006
8006
8002
ENDCHAR
STARTCHAR 00D2
ENCODING 210
SWIDTH 384 0
DWIDTH 20 0
BBX 18 42 1 0
BITMAP
010000
008000
004000
004000
002000
000000
000000
000000
007800
018600
020100
060100
040080
080080
080080
100080
100040
200040
200040
200040
400040
400040
400040
400040
400040
800040
800040
800040
800040
800080
800080
400080
400080
400100
400100
400200
200200
200400
100800
100800
083000
07C000
ENDCHAR
STARTCHAR 00D3
ENCODING 211
SWIDTH 384 0
DWIDTH 20 0
BBX 18 41 1 1
BITMAP
000200
000400
000800
000800
000000
000000
000000
007800
018600
020100
060100
040080
080080
080080
100080
100040
200040
200040
200040
400040
400040
400040
400040
400040
800040
800040
800040
800040
800080
800080
400080
400080
400100
400100
400200
200200
200400
100800
100800
083000
07C000
ENDCHAR
STARTCHAR 00D4
ENCODING 212
SWIDTH 384 0
DWIDTH 20 0
BBX 18 42 1 1
BITMAP
001000
003000
004800
004400
008400
000200
000000
000000
007800
018600
020100
060100
040080
080080
080080
100080
100040
200040
200040
200040
400040
400040
400040
400040
400040
800040
800040
800040
800040
800080
800080
400080
400080
400100
400100
400200
200200
200400
100800
100800
083000
07C000
ENDCHAR
STARTCHAR 00D5
ENCODING 213
SWIDTH 384 0
DWIDTH 20 0
BBX 18 42 1 0
BITMAP
007000
005080
008880
008880
010500
000200
000000
000000
007800
018600
020100
060100
040080
080080
080080
100080
100040
200040
200040
200040
400040
400040
400040
400040
400040
800040
800040
800040
800040
800080
800080
400080
400080
400100
400100
400200
200200
200400
100800
100800
083000
07C000
ENDCHAR
STARTCHAR 00D6
ENCODING 214
SWIDTH 384 0
DWIDTH 20 0
BBX 18 40 1 0
BITMAP
01C300
01C700
01C700
01C300
000000
000000
007800
018600
020100
060100
040080
080080
080080
100080
100040
200040
200040
200040
400040
400040
400040
400040
400040
800040
800040
800040
800040
800080
800080
400080
400080
400100
400100
400200
200200
200400
100800
100800
083000
07C000
ENDCHAR
STARTCHAR 00D7
ENCODING 215
SWIDTH 346 0
DWIDTH 18 0
BBX 12 16 3 4
BITMAP
8000
4020
2040
2080
1080
0900
0E00
0600
0600
0900
1900
1080
2040
4060
4020
8010
ENDCHAR
STARTCHAR 00D8
ENCODING 216
SWIDTH 500 0
DWIDTH 26 0
BBX 22 34 2 -1
BITMAP
001E04
003F08
006088
00C050
018060
030020
020060
0600E0
040090
0C0110
080310
080210
100410
100C10
100810
101010
101010
202010
204010
204010
208010
210010
210020
120020
140020
140040
180040
1800C0
180080
280180
240300
460600
83BC00
81F000
ENDCHAR
STARTCHAR 00D9
ENCODING 217
SWIDTH 384 0
DWIDTH 20 0
BBX 15 42 3 0
BITMAP
0800
0800
0400
0200
0200
0100
0000
0000
8002
8002
8002
8002
8002
8002
8002
8002
8002
8002
8002
8002
8002
8002
8002
8002
8002
8002
8002
8002
8002
8002
8002
8002
8004
8004
8004
8008
8008
8010
4010
4020
20C0
1F00
ENDCHAR
STARTCHAR 00DA
ENCODING 218
SWIDTH 384 0
DWIDTH 20 0
BBX 15 42 3 0
BITMAP
0020
0040
0040
0080
0100
0100
0000
0000
8002
8002
8002
8002
8002
8002
8002
8002
8002
8002
8002
8002
8002
8002
8002
8002
8002
8002
8002
8002
8002
8002
8002
8002
8004
8004
8004
8008
8008
8010
4010
4020
20C0
1F00
ENDCHAR
STARTCHAR 00DB
ENCODING 219
SWIDTH 384 0
DWIDTH 20 0
BBX 15 42 3 1
BITMAP
0100
0280
0480
0440
0820
0000
0000
0000
8002
8002
8002
8002
8002
8002
8002
8002
8002
8002
8002
8002
8002
8002
8002
8002
8002
8002
8002
8002
8002
8002
8002
8002
8004
8004
8004
8008
8008
8010
4010
4020
20C0
1F00
ENDCHAR
STARTCHAR 00DC
ENCODING 220
SWIDTH 384 0
DWIDTH 20 0
BBX 15 40 3 0
BITMAP
1C30
1C38
1C38
0C30
0000
0000
8002
8002
8002
8002
8002
8002
8002
8002
8002
8002
8002
8002
8002
8002
8002
8002
8002
8002
8002
8002
8002
8002
8002
8002
8004
8004
8004
8008
8008
8010
4010
4020
20C0
1F00
ENDCHAR
STARTCHAR 00DD
ENCODING 221
SWIDTH 442 0
DWIDTH 23 0
BBX 20 42 1 0
BITMAP
000400
000800
000800
001000
002000
002000
000000
000000
800000
C00010
400020
200060
100040
100080
080100
040100
060200
020400
010400
008800
009000
006000
002000
002000
002000
002000
002000
002000
002000
002000
002000
002000
002000
002000
002000
002000
002000
002000
002000
002000
002000
002000
ENDCHAR
STARTCHAR 00DE
ENCODING 222
SWIDTH 288 0
DWIDTH 15 0
BBX 12 36 1 -12
BITMAP
03C0
0620
8C20
9810
9010
A010
A010
4010
4010
4010
8010
8010
8010
8010
8020
8020
8020
8040
8040
8040
8080
8080
8100
8200
8C00
8000
8000
8000
8000
8000
8000
8000
8000
8000
8000
8000
ENDCHAR
STARTCHAR 00DF
ENCODING 223
SWIDTH 326 0
DWIDTH 17 0
BBX 13 34 2 0
BITMAP
9F00
FFC0
C040
8020
8020
8020
8020
8020
8020
8040
8040
8080
8100
8E00
FFC0
8060
8030
8010
8008
8008
8008
8008
8008
8008
8008
8008
8008
8010
9030
9060
90C0
9180
9600
8C00
ENDCHAR
STARTCHAR 00E0
ENCODING 224
SWIDTH 307 0
DWIDTH 16 0
BBX 13 31 1 0
BITMAP
0400
0200
0100
0080
0000
0000
0000
01E0
03F0
0610
0408
0808
1008
1008
0008
0008
0008
0008
0008
0078
03F8
0E08
1808
3008
6008
4008
8018
8028
8048
8188
7E08
ENDCHAR
STARTCHAR 00E1
ENCODING 225
SWIDTH 307 0
DWIDTH 16 0
BBX 13 31 1 0
BITMAP
0010
0020
0020
0040
0080
0000
0000
01E0
03F0
0610
0408
0808
1008
1008
0008
0008
0008
0008
0008
0078
03F8
0E08
1808
3008
6008
4008
8018
8028
8048
8188
7E08
ENDCHAR
STARTCHAR 00E2
ENCODING 226
SWIDTH 307 0
DWIDTH 16 0
BBX 13 32 1 1
BITMAP
0080
00C0
0120
0120
0210
0400
0000
0000
01E0
03F0
0610
0408
0808
1008
1008
0008
0008
0008
0008
0008
0078
03F8
0E08
1808
3008
6008
4008
8018
8028
8048
8188
7E08
ENDCHAR
STARTCHAR 00E3
ENCODING 227
SWIDTH 307 0
DWIDTH 16 0
BBX 13 32 1 0
BITMAP
0700
0508
0888
0888
0848
1070
0000
0000
01E0
03F0
0610
0408
0808
1008
1008
0008
0008
0008
0008
0008
0078
03F8
0E08
1808
3008
6008
4008
8018
8028
8048
8188
7E08
ENDCHAR
STARTCHAR 00E4
ENCODING 228
SWIDTH 307 0
DWIDTH 16 0
BBX 14 30 1 0
BITMAP
0618
0E1C
0E1C
0618
0000
0000
01E0
03F0
0610
0408
0808
1008
1008
0008
0008
0008
0008
0008
0078
03F8
0E08
1808
3008
6008
4008
8018
8028
8048
8188
7E08
ENDCHAR
STARTCHAR 00E5
ENCODING 229
SWIDTH 307 0
DWIDTH 16 0
BBX 13 34 1 0
BITMAP
00E0
0110
0210
0210
0210
0210
0110
00E0
0000
0000
01E0
03F0
0610
0408
0808
1008
1008
0008
0008
0008
0008
0008
0078
03F8
0E08
1808
3008
6008
4008
8018
8028
8048
8188
7E08
ENDCHAR
STARTCHAR 00E6
ENCODING 230
SWIDTH 519 0
DWIDTH 27 0
BBX 25 24 1 0
BITMAP
00703C00
01884200
02088100
04050100
08060080
10060080
10060380
00041C00
0004F000
00078000
00040000
00040000
00C40000
07FC0000
1C0C0000
30040000
60040080
400C0100
800C0100
801C0200
80340400
80620800
63C33000
3E01E000
ENDCHAR
STARTCHAR 00E7
ENCODING 231
SWIDTH 307 0
DWIDTH 16 0
BBX 13 29 1 -5
BITMAP
03C0
0620
0C10
0810
1000
1000
2000
2000
4000
4000
4000
4000
4000
8000
8000
8000
8000
8008
4010
4010
4020
4060
20C0
3F80
1E00
0400
0400
0400
0400
ENDCHAR
STARTCHAR 00E8
ENCODING 232
SWIDTH 326 0
DWIDTH 17 0
BBX 14 31 1 0
BITMAP
0800
0400
0200
0100
0000
0000
0000
03C0
0FE0
1830
1818
3008
2004
2038
40C0
4700
7800
C000
8000
8000
8000
8000
8004
8004
8008
8008
8010
4010
4020
20C0
1F00
ENDCHAR
STARTCHAR 00E9
ENCODING 233
SWIDTH 326 0
DWIDTH 17 0
BBX 14 31 1 0
BITMAP
0010
0020
0040
0040
0080
0000
0000
03C0
0FE0
1830
1818
3008
2004
2038
40C0
4700
7800
C000
8000
8000
8000
8000
8004
8004
8008
8008
8010
4010
4020
20C0
1F00
ENDCHAR
STARTCHAR 00EA
ENCODING 234
SWIDTH 326 0
DWIDTH 17 0
BBX 14 32 1 1
BITMAP
0100
0180
0240
0240
0420
0800
0000
0000
03C0
0FE0
1830
1818
3008
2004
2038
40C0
4700
7800
C000
8000
8000
8000
8000
8004
8004
8008
8008
8010
4010
4020
20C0
1F00
ENDCHAR
STARTCHAR 00EB
ENCODING 235
SWIDTH 326 0
DWIDTH 17 0
BBX 14 30 1 0
BITMAP
0C30
1C38
1C38
0C38
0000
0000
03C0
0FE0
1830
1818
3008
2004
2038
40C0
4700
7800
C000
8000
8000
8000
8000
8004
8004
8008
8008
8010
4010
4020
20C0
1F00
ENDCHAR
STARTCHAR 00EC
ENCODING 236
SWIDTH 153 0
DWIDTH 8 0
BBX 4 31 1 0
BITMAP
80
80
40
20
10
00
00
10
10
10
10
10
10
10
10
10
10
10
10
10
10
10
10
10
10
10
10
10
10
10
10
ENDCHAR
STARTCHAR 00ED
ENCODING 237
SWIDTH 134 0
DWIDTH 7 0
BBX 4 31 3 0
BITMAP
10
20
20
40
80
00
00
80
80
80
80
80
80
80
80
80
80
80
80
80
80
80
80
80
80
80
80
80
80
80
80
ENDCHAR
STARTCHAR 00EE
ENCODING 238
SWIDTH 134 0
DWIDTH 7 0
BBX 7 32 0 1
BITMAP
10
30
28
44
84
82
00
00
10
10
10
10
10
10
10
10
10
10
10
10
10
10
10
10
10
10
10
10
10
10
10
10
ENDCHAR
STARTCHAR 00EF
ENCODING 239
SWIDTH 134 0
DWIDTH 7 0
BBX 10 30 -2 0
BITMAP
61C0
F1C0
71C0
60C0
0000
0000
0400
0400
0400
0400
0400
0400
0400
0400
0400
0400
0400
0400
0400
0400
0400
0400
0400
0400
0400
0400
0400
0400
0400
0400
ENDCHAR
STARTCHAR 00F0
ENCODING 240
SWIDTH 326 0
DWIDTH 17 0
BBX 14 36 1 0
BITMAP
0008
0C18
0210
01A0
00E0
0060
00A0
0110
0108
0208
0408
0C04
0804
0004
0004
00F4
019C
0204
0404
0804
1804
1004
3004
2004
6004
400C
400C
8014
8014
8024
8024
8044
8084
8084
4304
3C04
ENDCHAR
STARTCHAR 00F1
ENCODING 241
SWIDTH 269 0
DWIDTH 14 0
BBX 10 32 2 0
BITMAP
3040
4840
4840
8480
8480
8300
0000
0000
8180
83C0
8640
8C40
8840
9040
B040
A040
C040
C040
8040
8040
8040
8040
8040
8040
8040
8040
8040
8040
8040
8040
8040
8000
ENDCHAR
STARTCHAR 00F2
ENCODING 242
SWIDTH 326 0
DWIDTH 17 0
BBX 14 31 1 0
BITMAP
0200
0200
0100
0080
0040
0000
0000
01E0
07F0
0618
0C0C
1804
1004
3004
2004
6004
4004
4004
4004
8004
8004
8008
8008
8008
8010
8010
8020
4020
2040
2080
1F00
ENDCHAR
STARTCHAR 00F3
ENCODING 243
SWIDTH 326 0
DWIDTH 17 0
BBX 14 31 1 0
BITMAP
0004
0008
0008
0010
0020
0000
0000
01E0
07F0
0618
0C0C
1804
1004
3004
2004
6004
4004
4004
4004
8004
8004
8008
8008
8008
8010
8010
8020
4020
2040
2080
1F00
ENDCHAR
STARTCHAR 00F4
ENCODING 244
SWIDTH 326 0
DWIDTH 17 0
BBX 14 32 1 1
BITMAP
0040
00C0
0120
0120
0210
0008
0000
0000
01E0
07F0
0618
0C0C
1804
1004
3004
2004
6004
4004
4004
4004
8004
8004
8008
8008
8008
8010
8010
8020
4020
2040
2080
1F00
ENDCHAR
STARTCHAR 00F5
ENCODING 245
SWIDTH 326 0
DWIDTH 17 0
BBX 15 32 1 0
BITMAP
0182
0242
0242
0422
0424
041C
0000
0000
01E0
07F0
0618
0C0C
1804
1004
3004
2004
6004
4004
4004
4004
8004
8004
8008
8008
8008
8010
8010
8020
4020
2040
2080
1F00
ENDCHAR
STARTCHAR 00F6
ENCODING 246
SWIDTH 326 0
DWIDTH 17 0
BBX 15 30 1 0
BITMAP
030E
070E
070E
0306
0000
0000
01E0
07F0
0618
0C0C
1804
1004
3004
2004
6004
4004
4004
4004
8004
8004
8008
8008
8008
8010
8010
8020
4020
2040
2080
1F00
ENDCHAR
STARTCHAR 00F7
ENCODING 247
SWIDTH 346 0
DWIDTH 18 0
BBX 16 20 1 4
BITMAP
0180
0180
0180
0180
0180
0000
0000
0000
0000
0000
FFFF
0000
0000
0000
0000
0000
0180
0180
0180
0180
ENDCHAR
STARTCHAR 00F8
ENCODING 248
SWIDTH 384 0
DWIDTH 20 0
BBX 17 24 2 0
BITMAP
00F080
01F900
030E00
060600
0C0600
180A00
100A00
201100
202100
406100
404100
408200
410200
810200
820200
840400
840400
880800
900800
701000
602000
606000
DFC000
8F0000
ENDCHAR
STARTCHAR 00F9
ENCODING 249
SWIDTH 269 0
DWIDTH 14 0
BBX 11 31 2 0
BITMAP
2000
2000
1000
0800
0000
0000
0000
8020
8020
8020
8020
8020
8020
8020
8020
8020
8020
8020
8020
8020
8020
8020
8020
8020
8060
8060
80A0
81A0
8320
4620
7820
ENDCHAR
STARTCHAR 00FA
ENCODING 250
SWIDTH 269 0
DWIDTH 14 0
BBX 11 31 2 0
BITMAP
0080
0100
0200
0400
0400
0000
0000
8020
8020
8020
8020
8020
8020
8020
8020
8020
8020
8020
8020
8020
8020
8020
8020
8020
8060
8060
80A0
81A0
8320
4620
7820
ENDCHAR
STARTCHAR 00FB
ENCODING 251
SWIDTH 269 0
DWIDTH 14 0
BBX 11 32 2 1
BITMAP
0C00
0C00
1200
1200
2100
0080
0000
0000
8020
8020
8020
8020
8020
8020
8020
8020
8020
8020
8020
8020
8020
8020
8020
8020
8020
8060
8060
80A0
81A0
8320
4620
7820
ENDCHAR
STARTCHAR 00FC
ENCODING 252
SWIDTH 269 0
DWIDTH 14 0
BBX 11 30 2 0
BITMAP
61C0
E1C0
E1C0
61C0
0000
0000
8020
8020
8020
8020
8020
8020
8020
8020
8020
8020
8020
8020
8020
8020
8020
8020
8020
8060
8060
80A0
81A0
8320
4620
7820
ENDCHAR
STARTCHAR 00FD
ENCODING 253
SWIDTH 346 0
DWIDTH 18 0
BBX 15 39 1 -8
BITMAP
0010
0020
0040
0080
0080
0000
0000
4002
4002
2002
2004
2004
1004
1008
1008
0808
0808
0810
0810
0410
0420
0420
0220
0220
0240
0140
0140
0180
0080
0080
0100
0100
0100
8100
8200
8200
8600
6C00
3800
ENDCHAR
STARTCHAR 00FE
ENCODING 254
SWIDTH 288 0
DWIDTH 15 0
BBX 12 47 1 -11
BITMAP
8000
8000
8000
8000
8000
8000
8000
8000
8000
8000
8000
83C0
8620
8C20
9810
9010
A010
A010
4010
4010
4010
8010
8010
8010
8010
8020
8020
8020
8040
8040
8040
8080
8080
4100
A200
9C00
8000
8000
8000
8000
8000
8000
8000
8000
8000
8000
8000
ENDCHAR
STARTCHAR 00FF
ENCODING 255
SWIDTH 346 0
DWIDTH 18 0
BBX 15 38 1 -8
BITMAP
0C18
0E38
0E38
0C18
0000
0000
4002
4002
2002
2004
2004
1004
1008
1008
0808
0808
0810
0810
0410
0420
0420
0220
0220
0240
0140
0140
0180
0080
0080
0100
0100
0100
8100
8200
8200
8600
6C00
3800
ENDCHAR
STARTCHAR 0131
ENCODING 305
SWIDTH 134 0
DWIDTH 7 0
BBX 1 24 3 0
BITMAP
80
80
80
80
80
80
80
80
80
80
80
80
80
80
80
80
80
80
80
80
80
80
80
80
ENDCHAR
STARTCHAR 0141
ENCODING 321
SWIDTH 346 0
DWIDTH 18 0
BBX 14 34 2 -1
BITMAP
1000
1000
1000
1000
1000
1000
1000
1000
1000
1000
1100
1200
1600
1400
1800
1800
3000
3000
5000
9000
9000
1000
1000
1000
1000
1000
1000
1000
1000
1000
1000
100C
10F0
1F00
ENDCHAR
STARTCHAR 0142
ENCODING 322
SWIDTH 211 0
DWIDTH 11 0
BBX 9 34 1 0
BITMAP
0800
0800
0800
0800
0800
0800
0800
0800
0800
0800
0800
0880
0900
0A00
0A00
0C00
0800
1800
1800
2800
6800
4800
8800
0800
0800
0800
0800
0800
0800
0800
0800
0800
0800
0800
ENDCHAR
STARTCHAR 0152
ENCODING 338
SWIDTH 596 0
DWIDTH 31 0
BBX 28 34 1 -1
BITMAP
00F00070
01F807C0
03057C00
06038000
0C030000
08010000
18010000
10010000
30010000
20010000
60010000
40010000
40010020
400103E0
80011E00
8000E000
80010000
80010000
80010000
80010000
80010000
80010000
80010000
80010000
80010000
80030000
80030000
40030000
40050000
40050000
20090010
201101E0
10211E00
0FC0E000
ENDCHAR
STARTCHAR 0153
ENCODING 339
SWIDTH 519 0
DWIDTH 27 0
BBX 24 24 1 1
BITMAP
01E038
03F044
061882
0C0982
180501
100601
300607
20061C
600470
4004C0
400700
400400
800800
800800
800800
800800
801801
801802
802802
402804
404808
408810
218460
1E0380
ENDCHAR
STARTCHAR 0160
ENCODING 352
SWIDTH 442 0
DWIDTH 23 0
BBX 18 42 3 1
BITMAP
040000
021000
022000
014000
00C000
000000
000000
000000
01F800
07FC00
0E0600
180300
300000
200000
400000
400000
800000
800000
800000
800000
800000
800000
407F00
41C180
3F0080
000040
000040
000040
000040
000040
000040
000040
000080
000080
000080
800100
800100
800200
400400
400800
301000
0FE000
ENDCHAR
STARTCHAR 0161
ENCODING 353
SWIDTH 326 0
DWIDTH 17 0
BBX 14 32 1 1
BITMAP
1020
0840
0880
0480
0300
0100
0000
0000
03F0
0C10
1000
2000
4000
4000
8000
8000
80F0
83C8
4604
7804
0004
0004
0004
0004
0004
000C
0008
0010
4030
4040
2180
1E00
ENDCHAR
STARTCHAR 0178
ENCODING 376
SWIDTH 442 0
DWIDTH 23 0
BBX 20 40 1 0
BITMAP
030E00
038E00
038E00
030600
000000
000000
800000
C00010
400020
200060
100040
100080
080100
040100
060200
020400
010400
008800
009000
006000
002000
002000
002000
002000
002000
002000
002000
002000
002000
002000
002000
002000
002000
002000
002000
002000
002000
002000
002000
002000
ENDCHAR
STARTCHAR 017D
ENCODING 381
SWIDTH 346 0
DWIDTH 18 0
BBX 15 42 2 1
BITMAP
0820
0820
0440
0280
0180
0000
0000
0000
1FFE
7C02
4004
4004
4008
0008
0010
0010
0020
0020
0060
0040
0040
0080
0080
0100
0100
0200
0200
0600
0400
0400
0800
0800
1000
1000
2000
2000
6000
4000
4000
8004
8004
FFF8
ENDCHAR
STARTCHAR 017E
ENCODING 382
SWIDTH 307 0
DWIDTH 16 0
BBX 13 32 1 0
BITMAP
1020
0840
0880
0480
0300
0100
0000
0000
0038
3FD0
2010
0030
0020
0060
0040
00C0
0080
0180
0100
0300
0200
0600
0400
0C00
0800
1800
1000
3000
2000
6000
4030
FFC0
ENDCHAR
STARTCHAR 0192
ENCODING 402
SWIDTH 365 0
DWIDTH 19 0
BBX 20 42 -2 -8
BITMAP
0001C0
000620
000420
000810
000810
000800
000800
001000
001000
001000
001000
001000
001000
001000
002000
002000
07FFC0
002000
002000
002000
002000
004000
004000
004000
004000
004000
004000
004000
008000
008000
008000
008000
008000
008000
010000
010000
810000
810000
810000
820000
660000
3C0000
ENDCHAR
STARTCHAR 02C6
ENCODING 710
SWIDTH 269 0
DWIDTH 14 0
BBX 7 6 2 19
BITMAP
10
28
28
44
82
82
ENDCHAR
STARTCHAR 02C7
ENCODING 711
SWIDTH 269 0
DWIDTH 14 0
BBX 7 6 2 18
BITMAP
82
84
44
28
28
10
ENDCHAR
STARTCHAR 02C9
ENCODING 713
SWIDTH 250 0
DWIDTH 13 0
BBX 7 1 1 20
BITMAP
FE
ENDCHAR
STARTCHAR 02D8
ENCODING 728
SWIDTH 288 0
DWIDTH 15 0
BBX 7 6 2 19
BITMAP
80
82
82
42
44
38
ENDCHAR
STARTCHAR 02D9
ENCODING 729
SWIDTH 96 0
DWIDTH 5 0
BBX 2 2 1 20
BITMAP
C0
C0
ENDCHAR
STARTCHAR 02DA
ENCODING 730
SWIDTH 192 0
DWIDTH 10 0
BBX 6 8 1 18
BITMAP
30
48
88
84
88
88
88
70
ENDCHAR
STARTCHAR 02DB
ENCODING 731
SWIDTH 365 0
DWIDTH 19 0
BBX 1 5 8 -5
BITMAP
80
80
80
80
80
ENDCHAR
STARTCHAR 02DC
ENCODING 732
SWIDTH 346 0
DWIDTH 18 0
BBX 9 6 2 18
BITMAP
7000
5080
8880
8880
8480
0300
ENDCHAR
STARTCHAR 02DD
ENCODING 733
SWIDTH 307 0
DWIDTH 16 0
BBX 11 8 3 26
BITMAP
0020
0840
1040
2080
2100
4200
8200
8400
ENDCHAR
STARTCHAR 03BC
ENCODING 956
SWIDTH 269 0
DWIDTH 14 0
BBX 11 33 2 -9
BITMAP
8020
8020
8020
8020
8020
8020
8020
8020
8020
8020
8020
8020
8020
8020
8020
8020
8020
8060
8060
80A0
81A0
8320
C620
F820
8000
8000
8000
8000
8000
8000
8000
8000
8000
ENDCHAR
STARTCHAR 2010
ENCODING 8208
SWIDTH 211 0
DWIDTH 11 0
BBX 9 2 1 12
BITMAP
0F80
F800
ENDCHAR
STARTCHAR 2013
ENCODING 8211
SWIDTH 326 0
DWIDTH 17 0
BBX 17 1 0 13
BITMAP
FFFF80
ENDCHAR
STARTCHAR 2014
ENCODING 8212
SWIDTH 653 0
DWIDTH 34 0
BBX 34 1 0 13
BITMAP
FFFFFFFFC0
ENDCHAR
STARTCHAR 2018
ENCODING 8216
SWIDTH 134 0
DWIDTH 7 0
BBX 3 10 2 29
BITMAP
20
60
40
C0
80
80
C0
40
40
60
ENDCHAR
STARTCHAR 2019
ENCODING 8217
SWIDTH 134 0
DWIDTH 7 0
BBX 3 9 2 29
BITMAP
40
40
60
20
20
20
40
40
80
ENDCHAR
STARTCHAR 201A
ENCODING 8218
SWIDTH 134 0
DWIDTH 7 0
BBX 3 9 2 -5
BITMAP
80
C0
40
40
60
40
40
40
80
ENDCHAR
STARTCHAR 201C
ENCODING 8220
SWIDTH 230 0
DWIDTH 12 0
BBX 8 10 2 29
BITMAP
21
62
42
C4
84
84
C4
46
42
62
ENDCHAR
STARTCHAR 201D
ENCODING 8221
SWIDTH 230 0
DWIDTH 12 0
BBX 8 9 2 28
BITMAP
46
42
62
21
21
23
62
42
84
ENDCHAR
STARTCHAR 201E
ENCODING 8222
SWIDTH 230 0
DWIDTH 12 0
BBX 8 10 2 -6
BITMAP
46
46
62
23
21
21
23
42
46
84
ENDCHAR
STARTCHAR 2020
ENCODING 8224
SWIDTH 288 0
DWIDTH 15 0
BBX 13 34 1 0
BITMAP
0200
0200
0200
0200
0200
0200
0200
0200
0200
0200
FFF8
0200
0200
0200
0200
0200
0200
0200
0200
0200
0200
0200
0200
0200
0200
0200
0200
0200
0200
0200
0200
0200
0200
0200
ENDCHAR
STARTCHAR 2021
ENCODING 8225
SWIDTH 288 0
DWIDTH 15 0
BBX 13 34 1 0
BITMAP
0200
0200
0200
0200
0200
0200
0200
0200
0200
0200
FFF8
0200
0200
0200
0200
0200
0200
0200
0200
0200
0200
0200
FFF8
0200
0200
0200
0200
0200
0200
0200
0200
0200
0200
0200
ENDCHAR
STARTCHAR 2022
ENCODING 8226
SWIDTH 307 0
DWIDTH 16 0
BBX 11 16 2 8
BITMAP
0F00
1FC0
3FC0
7FE0
7FE0
7FE0
FFE0
FFE0
FFE0
FFE0
FFE0
7FC0
7FC0
7F80
3F80
1E00
ENDCHAR
STARTCHAR 2026
ENCODING 8230
SWIDTH 576 0
DWIDTH 30 0
BBX 23 3 3 1
BITMAP
401806
E0180E
401806
ENDCHAR
STARTCHAR 2039
ENCODING 8249
SWIDTH 269 0
DWIDTH 14 0
BBX 9 21 2 3
BITMAP
0100
0200
0600
0400
0800
1000
3000
2000
4000
8000
8000
4000
2000
2000
1000
0800
0400
0600
0200
0100
0080
ENDCHAR
STARTCHAR 203A
ENCODING 8250
SWIDTH 211 0
DWIDTH 11 0
BBX 9 22 1 2
BITMAP
8000
4000
6000
2000
1000
0800
0C00
0400
0200
0100
0180
0180
0100
0200
0400
0C00
0800
1000
2000
4000
4000
8000
ENDCHAR
STARTCHAR 2044
ENCODING 8260
SWIDTH 211 0
DWIDTH 11 0
BBX 13 34 -1 0
BITMAP
0008
0010
0010
0010
0020
0020
0040
0040
0040
0080
0080
0080
0100
0100
0100
0200
0200
0200
0400
0400
0800
0800
0800
1000
1000
1000
2000
2000
2000
4000
4000
4000
8000
8000
ENDCHAR
STARTCHAR 2122
ENCODING 8482
SWIDTH 557 0
DWIDTH 29 0
BBX 24 18 2 17
BITMAP
00C001
0F0803
F80803
081803
081405
081405
081205
081209
081209
081109
081111
081111
081091
0810A1
0810A1
081061
081041
080001
ENDCHAR
STARTCHAR 2212
ENCODING 8722
SWIDTH 211 0
DWIDTH 11 0
BBX 9 1 1 13
BITMAP
FF80
ENDCHAR
STARTCHAR 2219
ENCODING 8729
SWIDTH 96 0
DWIDTH 5 0
BBX 2 4 2 11
BITMAP
C0
C0
C0
C0
ENDCHAR
STARTCHAR F000
ENCODING 61440
SWIDTH 692 0
DWIDTH 36 0
BBX 0 0 0 0
BITMAP
ENDCHAR
STARTCHAR F001
ENCODING 61441
SWIDTH 326 0
DWIDTH 17 0
BBX 13 34 2 0
BITMAP
03C0
0420
0810
0810
0808
0808
0808
0808
0800
0800
0818
08E8
0F08
1C08
E808
0808
0808
0808
0808
0808
0808
0808
0808
0808
0808
0808
0808
0808
0808
0808
0808
0808
0808
0808
ENDCHAR
STARTCHAR F002
ENCODING 61442
SWIDTH 326 0
DWIDTH 17 0
BBX 13 34 2 0
BITMAP
03C0
0420
0818
0808
0808
0808
0808
0808
0808
0808
0838
09C8
0E08
1808
E808
0808
0808
0808
0808
0808
0808
0808
0808
0808
0808
0808
0808
0808
0808
0808
0808
0808
0808
0808
ENDCHAR
ENDFONT
